<svg viewBox="0 0 168.3 16" xmlns="http://www.w3.org/2000/svg">
<path d="M103.1.2v.3c.8.2 1.3 1.1 1.3 2.2v10.5c0 1.1-.6 2.1-1.3 2.3v.3h16.8l2.3-3.8h-.3c-.4.6-1.5 1.1-2.3 1.1h-11.7V2.7c0-1.1.6-2 1.3-2.2V.2h-6.1Zm63 15.6h-17.7v-.3c.8-.2 1.3-1.2 1.3-2.3V2.7c0-1.1-.6-2-1.3-2.2V.2h14.8l2 3.7h-.2c-.5-.4-1.2-1.1-1.8-1.1h-10.1v2.8h6.8l2.2 2.5h-9v5h12.6c.8 0 1.9-.5 2.3-1.1h.3l-2.3 3.8h.1Zm-33.6-2.9 5.4-9.8c1-1.9.4-2.6-.2-2.6V.2h6.4v.3c-.8.2-1.1.8-1.9 2.1l-7.8 13.2h-4.1l-7.8-13.2c-.8-1.4-1.1-2-1.9-2.1V.2h6.4v.3c-.5 0-1.2.7-.2 2.6l5.5 9.8h.4-.2Zm-72 0 5.4-9.8c1-1.9.4-2.6-.2-2.6V.2h6.4v.3c-.8.2-1.5 1.4-2.4 2.9l-7.4 12.4h-4.1L50.8 3.4C49.9 1.9 49.2.7 48.4.5V.2h6.4v.3c-.5 0-1.2.7-.2 2.6l5.5 9.8h.4Zm15.1-4.7v-.5c0-5.3 3.1-7.7 9.9-7.7h2.3c6.8 0 9.9 2.5 9.9 7.7v.5c0 5.3-3.1 7.8-9.9 7.8h-2.3c-6.8 0-9.9-2.6-9.9-7.8Zm18.7-.1v-.2c0-3.4-2.1-5.2-6.6-5.2h-2c-4.5 0-6.6 1.8-6.6 5.2v.2c0 3.4 2.1 5.2 6.6 5.2h2c4.5 0 6.6-1.8 6.6-5.2Zm-49.5 7.7H27.1v-.3c.8-.2 1.3-1.2 1.3-2.3V2.7c0-1.1-.6-2-1.3-2.2V.2h14.8l2 3.4h-.2c-.5-.4-1.2-.8-1.8-.8H31.8v2.8h6.8l2.2 2.5h-9v5h12.6c.8 0 1.9-.5 2.3-1.1h.3l-2.3 3.8h.1Zm-23.3 0h-3.2c-2.4 0-2.3-1.4-3.9-3.6-1-1.3-2.7-1.5-4.4-1.5H4.7v2.5c0 1.1.6 2 1.3 2.2v.3H0v-.3c.8-.2 1.3-1.1 1.3-2.2V2.7C1.3 1.6.8.7 0 .5V.2h14.5c4.4 0 5.3 1.4 5.3 4.6v.6c0 2.7-1.7 3.9-3.6 3.9h-1.4c2.9.1 3.3 1.8 4.8 4.4.8 1.4 1.3 1.6 1.8 1.8v.3h.1ZM16.4 5.7v-.4c0-2.5-.7-2.6-3.2-2.6H4.7v5.4h8.5c2.2 0 3.2-.8 3.2-2.5"></path>
</svg>